<?xml version="1.0" encoding="UTF-8" standalone="no"?>
<!-- Created with Inkscape (http://www.inkscape.org/) -->

<svg
   width="64"
   height="64"
   viewBox="0 0 16.933334 16.933333"
   version="1.1"
   id="svg1"
   inkscape:version="1.4 (e7c3feb100, 2024-10-09)"
   sodipodi:docname="easy.svg"
   xmlns:inkscape="http://www.inkscape.org/namespaces/inkscape"
   xmlns:sodipodi="http://sodipodi.sourceforge.net/DTD/sodipodi-0.dtd"
   xmlns="http://www.w3.org/2000/svg"
   xmlns:svg="http://www.w3.org/2000/svg">
  <sodipodi:namedview
     id="namedview1"
     pagecolor="#505050"
     bordercolor="#eeeeee"
     borderopacity="1"
     inkscape:showpageshadow="0"
     inkscape:pageopacity="0"
     inkscape:pagecheckerboard="0"
     inkscape:deskcolor="#d1d1d1"
     inkscape:document-units="mm"
     inkscape:zoom="4.0365798"
     inkscape:cx="-4.4592207"
     inkscape:cy="62.800691"
     inkscape:window-width="1920"
     inkscape:window-height="1010"
     inkscape:window-x="0"
     inkscape:window-y="0"
     inkscape:window-maximized="1"
     inkscape:current-layer="svg1" />
  <defs
     id="defs1" />
  <path
     id="path15"
     style="display:inline;fill:#0094ff;fill-opacity:1;fill-rule:evenodd;stroke:none;stroke-width:0.0529167;stroke-linejoin:bevel"
     inkscape:label="circle"
     d="M 8.4666672,0.02645835 A 8.4402016,8.4402016 0 0 0 0.02645835,8.4666672 8.4402016,8.4402016 0 0 0 8.4666672,16.906875 8.4402016,8.4402016 0 0 0 16.906876,8.4666672 8.4402016,8.4402016 0 0 0 8.4666672,0.02645835 Z m 0,1.11984675 A 7.3203548,7.3203548 0 0 1 15.787029,8.4666672 7.3203548,7.3203548 0 0 1 8.4666672,15.787029 7.3203548,7.3203548 0 0 1 1.1463057,8.4666672 7.3203548,7.3203548 0 0 1 8.4666672,1.1463051 Z" />
  <path
     id="path5"
     style="display:inline;fill:#0094ff;fill-opacity:1;fill-rule:evenodd;stroke:none;stroke-width:0.0529167;stroke-linejoin:bevel"
     d="M 7.6939964,4.6896387 A 3.0132501,3.0132501 0 0 0 4.6807391,7.7028959 3.0132501,3.0132501 0 0 0 7.6939964,10.716153 3.0132501,3.0132501 0 0 0 9.2912585,10.256975 l 1.7866075,1.786607 c 0.128405,0.129059 0.305254,0.199454 0.487308,0.200113 0.379654,4e-6 0.687424,-0.307768 0.68742,-0.687421 -1.6e-5,-0.182301 -0.0712,-0.358374 -0.200111,-0.487275 C 11.455949,10.471815 10.858804,9.8752022 10.261871,9.2783875 A 3.0132501,3.0132501 0 0 0 10.707253,7.7028959 3.0132501,3.0132501 0 0 0 7.6939964,4.6896387 Z m 0,1.1629182 A 1.8503321,1.8503321 0 0 1 9.5443349,7.7028959 1.8503321,1.8503321 0 0 1 7.6939964,9.5532345 1.8503321,1.8503321 0 0 1 5.8436572,7.7028959 1.8503321,1.8503321 0 0 1 7.6939964,5.8525569 Z" />
</svg>
